#format: frame checksums
#version: 1
#hash: MD5
#tb 0: 1/25
#stream#, dts,        pts, duration,     size, hash
0,          0,          0,        1,   301052, 8645cb98470205cceea3c2026223b69f
0,          1,          1,        1,   301068, 9123c3c31ac0bc0832bb07e8c6d5b372
0,          2,          2,        1,   300840, 394aa034eba2b306efa8171efc5fb960
0,          3,          3,        1,   300904, 1abc4512d268bb7bb4b9f467aa19e5a8
0,          4,          4,        1,   300912, e117d6f8d2bbd89bdce86cd5c4cf6206
0,          5,          5,        1,   300936, d6a6c100e6dfd0e4dcdaa67ec59a757a
0,          6,          6,        1,   300944, 3a0bf05461965bf2e538f5ed1067e784
0,          7,          7,        1,   301044, 66e2fef970e8d997bb52f28eed9ad6fe
0,          8,          8,        1,   301076, 6ae8f26125255c46be8c6da07d21ba35
0,          9,          9,        1,   301044, 024d41f9d3b217b58ad6ba2a8f3b680d
0,         10,         10,        1,   300944, 5dc0387f32b68e365c467f9dcc62b923
0,         11,         11,        1,   300912, 47db16c6118feb2143fe0d1ec909bb51
0,         12,         12,        1,   301044, 7161af85d2c85529b83548a701c6f5b7
0,         13,         13,        1,   300964, 2dd90b4edcfc8d2b84168f42c7a47785
0,         14,         14,        1,   300868, 76b296949227e7b22f204bec90dd02af
0,         15,         15,        1,   300880, 44f9c830be2c9efdda335bf774f3b6c6
0,         16,         16,        1,   301020, 70c1883ae4ff2ae8b0d5a608a75c839c
0,         17,         17,        1,   301072, bac10cb932595594e4e8146831bbe00b
0,         18,         18,        1,   301192, 46c2aa31dc33baa4d37f71f9873cbe6f
0,         19,         19,        1,   301224, 396c406acf79cbe79c064ccbe7a3b648
0,         20,         20,        1,   301180, 8d5d2071ddc79335f6785a921851905e
0,         21,         21,        1,   301180, 9767bc30cadd23f0625e665e9b70ac31
0,         22,         22,        1,   301116, fba702e0ab727d9446a7796790a10545
0,         23,         23,        1,   301060, 9a08113dd947874b57d4cc85d56343ca
0,         24,         24,        1,   301128, a58b1ebeb28fac3c88f64c8ba15f0591
0,         25,         25,        1,   301144, e071b28b961f8d9c5da9b1ff41c24c2a
0,         26,         26,        1,   301088, d19bed9054db25a718724d746d22c800
0,         27,         27,        1,   301232, 70b2832bb0eb5f8a74e0bee411f66a46
0,         28,         28,        1,   301152, 470bd72096d3ef6b5490b03cfdea438d
0,         29,         29,        1,   301224, f3c285eb28a3c5b820276d3a68976df4
0,         30,         30,        1,   301224, a432bfc1e022f189a70cbc963d716596
0,         31,         31,        1,   301160, fbde0ac1bb6e5dbd870c1c6d8f03190c
0,         32,         32,        1,   301120, 61f251db3d73483206609718063cfbb9
0,         33,         33,        1,   301096, 6c1908eac263c8c3368683ced8078da4
0,         34,         34,        1,   301000, 4b8df4fa83c085ea36369dbdd37f58bd
0,         35,         35,        1,   301152, e2ceb9ff6b72b815e4b511a85dc0ae38
0,         36,         36,        1,   301232, 27cc508ff5081f9c901c4eabd62e5835
0,         37,         37,        1,   301228, bdb62b975b1cfe4ba8be08be1e8b1a5e
0,         38,         38,        1,   301296, 13fc07f3935b70e98922233cf81bc7a4
0,         39,         39,        1,   301296, 5fe19496257987b809e56e3c11192c43
0,         40,         40,        1,   301308, a86115cd10e74c795739e8e325403ac6
0,         41,         41,        1,   301268, 6c1f7bbf077ff58486f256e2ce9d01e6
0,         42,         42,        1,   301344, 3fda739956dfa07a15cc5bd7e054568d
0,         43,         43,        1,   301308, 54584061bcce46feb19aafa37922f923
0,         44,         44,        1,   301292, 092e08d230dcfe4abd1460ef26c31421
0,         45,         45,        1,   301344, 39ca46f9f38434aee15660263921f392
0,         46,         46,        1,   301432, f7b76bebcfc614537c20bd6b20096d78
0,         47,         47,        1,   301440, 86c97147d03bf7aee71073127c7fad32
0,         48,         48,        1,   301460, 3fdbe5ae0b7e6b7ec0bc5668ba50a491
0,         49,         49,        1,   301444, 8ef2e62af67f91e886b8f25456b38869
